<svg xmlns="http://www.w3.org/2000/svg" xmlns:xlink="http://www.w3.org/1999/xlink" width="335" zoomAndPan="magnify" viewBox="0 0 251.25 198.749995" height="265" preserveAspectRatio="xMidYMid meet" version="1.0"><defs><g/><clipPath id="06cfeb4d93"><path d="M 121 0.171875 L 248 0.171875 L 248 63 L 121 63 Z M 121 0.171875 " clip-rule="nonzero"/></clipPath><clipPath id="cdd3e7a27d"><path d="M 1 0.171875 L 124 0.171875 L 124 63 L 1 63 Z M 1 0.171875 " clip-rule="nonzero"/></clipPath><clipPath id="5d1dd078a6"><path d="M 127.03125 14.097656 L 164.417969 14.097656 L 164.417969 72.421875 L 127.03125 72.421875 Z M 127.03125 14.097656 " clip-rule="nonzero"/></clipPath><clipPath id="55826f72a9"><path d="M 105 73 L 117 73 L 117 73.171875 L 105 73.171875 Z M 105 73 " clip-rule="nonzero"/></clipPath><clipPath id="0609a4115b"><path d="M 80.601562 14.84375 L 117.992188 14.84375 L 117.992188 73.171875 L 80.601562 73.171875 Z M 80.601562 14.84375 " clip-rule="nonzero"/></clipPath><clipPath id="c66a2e1cb6"><path d="M 99.46875 0.171875 L 146.578125 0.171875 L 146.578125 72.703125 L 99.46875 72.703125 Z M 99.46875 0.171875 " clip-rule="nonzero"/></clipPath><clipPath id="59147d2c15"><path d="M 1 132 L 133 132 L 133 198.328125 L 1 198.328125 Z M 1 132 " clip-rule="nonzero"/></clipPath><clipPath id="a8346f917e"><path d="M 105 122 L 117 122 L 117 156 L 105 156 Z M 105 122 " clip-rule="nonzero"/></clipPath><clipPath id="6022ec9c90"><path d="M 80.902344 122.035156 L 118.289062 122.332031 L 117.988281 160.464844 L 80.601562 160.167969 Z M 80.902344 122.035156 " clip-rule="nonzero"/></clipPath><clipPath id="76cab56f3b"><path d="M 81.710938 20.710938 L 119.097656 21.007812 L 117.988281 160.085938 L 80.601562 159.789062 Z M 81.710938 20.710938 " clip-rule="nonzero"/></clipPath><clipPath id="87e64dfeae"><path d="M 80 122 L 119 122 L 119 161 L 80 161 Z M 80 122 " clip-rule="nonzero"/></clipPath><clipPath id="fdfe4b3f79"><path d="M 80.902344 122.035156 L 118.289062 122.332031 L 117.988281 160.464844 L 80.601562 160.167969 Z M 80.902344 122.035156 " clip-rule="nonzero"/></clipPath><clipPath id="a1f19d539f"><path d="M 81.710938 20.710938 L 119.097656 21.007812 L 117.988281 160.085938 L 80.601562 159.789062 Z M 81.710938 20.710938 " clip-rule="nonzero"/></clipPath><clipPath id="1d0f708020"><path d="M 152 122 L 164 122 L 164 156 L 152 156 Z M 152 122 " clip-rule="nonzero"/></clipPath><clipPath id="2597562dc7"><path d="M 128.078125 122.035156 L 165.46875 122.332031 L 165.164062 160.464844 L 127.777344 160.167969 Z M 128.078125 122.035156 " clip-rule="nonzero"/></clipPath><clipPath id="6ff01a8992"><path d="M 128.886719 20.710938 L 166.273438 21.007812 L 165.167969 160.085938 L 127.78125 159.789062 Z M 128.886719 20.710938 " clip-rule="nonzero"/></clipPath><clipPath id="1b551e56c2"><path d="M 127 122 L 166 122 L 166 161 L 127 161 Z M 127 122 " clip-rule="nonzero"/></clipPath><clipPath id="731468b831"><path d="M 128.078125 122.035156 L 165.46875 122.332031 L 165.164062 160.464844 L 127.777344 160.167969 Z M 128.078125 122.035156 " clip-rule="nonzero"/></clipPath><clipPath id="b845eb2601"><path d="M 128.886719 20.710938 L 166.273438 21.007812 L 165.167969 160.085938 L 127.78125 159.789062 Z M 128.886719 20.710938 " clip-rule="nonzero"/></clipPath><clipPath id="fe2c61151b"><path d="M 129 121.933594 L 144 121.933594 L 144 165 L 129 165 Z M 129 121.933594 " clip-rule="nonzero"/></clipPath><clipPath id="6b93a88f20"><path d="M 98.894531 121.933594 L 146 121.933594 L 146 169.601562 L 98.894531 169.601562 Z M 98.894531 121.933594 " clip-rule="nonzero"/></clipPath><clipPath id="bbc79c9255"><path d="M 115 132 L 247 132 L 247 198.328125 L 115 198.328125 Z M 115 132 " clip-rule="nonzero"/></clipPath><clipPath id="2ec3834e0f"><path d="M 33 141 L 43 141 L 43 151 L 33 151 Z M 33 141 " clip-rule="nonzero"/></clipPath><clipPath id="81384ac344"><path d="M 36.6875 139.234375 L 44.433594 143.613281 L 40.265625 150.980469 L 32.519531 146.601562 Z M 36.6875 139.234375 " clip-rule="nonzero"/></clipPath><clipPath id="64b8c010b6"><path d="M 40.554688 141.417969 L 39.875 144.75 L 42.828125 146.417969 L 39.453125 146.808594 L 38.777344 150.140625 L 37.371094 147.046875 L 33.996094 147.4375 L 36.5 145.136719 L 35.097656 142.046875 L 38.050781 143.71875 Z M 40.554688 141.417969 " clip-rule="nonzero"/></clipPath><clipPath id="3fdfc07e65"><path d="M 0.980469 0.351562 L 9.832031 0.351562 L 9.832031 9.203125 L 0.980469 9.203125 Z M 0.980469 0.351562 " clip-rule="nonzero"/></clipPath><clipPath id="9a40f51a34"><path d="M 3.6875 -1.765625 L 11.433594 2.613281 L 7.265625 9.980469 L -0.480469 5.601562 Z M 3.6875 -1.765625 " clip-rule="nonzero"/></clipPath><clipPath id="ce0c98bb0b"><path d="M 7.554688 0.417969 L 6.875 3.75 L 9.828125 5.417969 L 6.453125 5.808594 L 5.777344 9.140625 L 4.371094 6.046875 L 0.996094 6.4375 L 3.5 4.136719 L 2.097656 1.046875 L 5.050781 2.71875 Z M 7.554688 0.417969 " clip-rule="nonzero"/></clipPath><clipPath id="54e515e0aa"><rect x="0" width="10" y="0" height="10"/></clipPath><clipPath id="6a29f25500"><path d="M 82 166 L 92 166 L 92 175 L 82 175 Z M 82 166 " clip-rule="nonzero"/></clipPath><clipPath id="20b936394a"><path d="M 85.179688 163.886719 L 92.921875 168.269531 L 88.753906 175.636719 L 81.011719 171.257812 Z M 85.179688 163.886719 " clip-rule="nonzero"/></clipPath><clipPath id="4f4c272b67"><path d="M 89.046875 166.074219 L 88.367188 169.40625 L 91.320312 171.074219 L 87.945312 171.464844 L 87.265625 174.796875 L 85.863281 171.703125 L 82.488281 172.09375 L 84.992188 169.792969 L 83.589844 166.703125 L 86.542969 168.375 Z M 89.046875 166.074219 " clip-rule="nonzero"/></clipPath><clipPath id="835016924b"><path d="M 0.3125 0 L 9.40625 0 L 9.40625 8.851562 L 0.3125 8.851562 Z M 0.3125 0 " clip-rule="nonzero"/></clipPath><clipPath id="bff315f83b"><path d="M 3.179688 -2.113281 L 10.921875 2.269531 L 6.753906 9.636719 L -0.988281 5.257812 Z M 3.179688 -2.113281 " clip-rule="nonzero"/></clipPath><clipPath id="3b3413924b"><path d="M 7.046875 0.0742188 L 6.367188 3.40625 L 9.320312 5.074219 L 5.945312 5.464844 L 5.265625 8.796875 L 3.863281 5.703125 L 0.488281 6.09375 L 2.992188 3.792969 L 1.589844 0.703125 L 4.542969 2.375 Z M 7.046875 0.0742188 " clip-rule="nonzero"/></clipPath><clipPath id="9f74d39640"><rect x="0" width="10" y="0" height="9"/></clipPath><clipPath id="0a4900b9a3"><path d="M 149 169 L 159 169 L 159 179 L 149 179 Z M 149 169 " clip-rule="nonzero"/></clipPath><clipPath id="706d8f2fe4"><path d="M 147.78125 171.773438 L 155.640625 167.605469 L 159.609375 175.082031 L 151.75 179.253906 Z M 147.78125 171.773438 " clip-rule="nonzero"/></clipPath><clipPath id="880d01672f"><path d="M 151.707031 169.691406 L 154.148438 172.058594 L 157.144531 170.464844 L 155.65625 173.519531 L 158.097656 175.882812 L 154.738281 175.40625 L 153.25 178.457031 L 152.660156 175.109375 L 149.296875 174.628906 L 152.296875 173.039062 Z M 151.707031 169.691406 " clip-rule="nonzero"/></clipPath><clipPath id="bb3dfa30ca"><path d="M 0.0742188 0.585938 L 9.167969 0.585938 L 9.167969 9.679688 L 0.0742188 9.679688 Z M 0.0742188 0.585938 " clip-rule="nonzero"/></clipPath><clipPath id="a38a0a0355"><path d="M -1.21875 2.773438 L 6.640625 -1.394531 L 10.609375 6.082031 L 2.75 10.253906 Z M -1.21875 2.773438 " clip-rule="nonzero"/></clipPath><clipPath id="1a423797e7"><path d="M 2.707031 0.691406 L 5.148438 3.058594 L 8.144531 1.464844 L 6.65625 4.519531 L 9.097656 6.882812 L 5.738281 6.40625 L 4.25 9.457031 L 3.660156 6.109375 L 0.296875 5.628906 L 3.296875 4.039062 Z M 2.707031 0.691406 " clip-rule="nonzero"/></clipPath><clipPath id="c2919f6847"><rect x="0" width="10" y="0" height="10"/></clipPath><clipPath id="4f32ff1d73"><path d="M 208 141 L 217 141 L 217 151 L 208 151 Z M 208 141 " clip-rule="nonzero"/></clipPath><clipPath id="d86ed56012"><path d="M 206.585938 143.394531 L 214.445312 139.226562 L 218.414062 146.703125 L 210.554688 150.875 Z M 206.585938 143.394531 " clip-rule="nonzero"/></clipPath><clipPath id="19185c290d"><path d="M 210.507812 141.3125 L 212.953125 143.679688 L 215.949219 142.085938 L 214.460938 145.140625 L 216.902344 147.503906 L 213.542969 147.027344 L 212.054688 150.078125 L 211.464844 146.730469 L 208.101562 146.25 L 211.097656 144.660156 Z M 210.507812 141.3125 " clip-rule="nonzero"/></clipPath><clipPath id="0c81264f9d"><path d="M 0 0.109375 L 9 0.109375 L 9 9.203125 L 0 9.203125 Z M 0 0.109375 " clip-rule="nonzero"/></clipPath><clipPath id="ee4c3ccaa9"><path d="M -1.414062 2.394531 L 6.445312 -1.773438 L 10.414062 5.703125 L 2.554688 9.875 Z M -1.414062 2.394531 " clip-rule="nonzero"/></clipPath><clipPath id="e7c6f24b95"><path d="M 2.507812 0.3125 L 4.953125 2.679688 L 7.949219 1.085938 L 6.460938 4.140625 L 8.902344 6.503906 L 5.542969 6.027344 L 4.054688 9.078125 L 3.464844 5.730469 L 0.101562 5.25 L 3.097656 3.660156 Z M 2.507812 0.3125 " clip-rule="nonzero"/></clipPath><clipPath id="e0731655e3"><rect x="0" width="9" y="0" height="10"/></clipPath><clipPath id="a63eb6dc31"><path d="M 80 21 L 89 21 L 89 31 L 80 31 Z M 80 21 " clip-rule="nonzero"/></clipPath><clipPath id="3b5ae7dda0"><path d="M 85.648438 19.617188 L 91.136719 26.617188 L 84.472656 31.84375 L 78.988281 24.839844 Z M 85.648438 19.617188 " clip-rule="nonzero"/></clipPath><clipPath id="5f1cf853c6"><path d="M 88.390625 23.113281 L 86.492188 25.933594 L 88.585938 28.601562 L 85.316406 27.675781 L 83.417969 30.496094 L 83.300781 27.101562 L 80.03125 26.175781 L 83.226562 25.003906 L 83.105469 21.613281 L 85.199219 24.28125 Z M 88.390625 23.113281 " clip-rule="nonzero"/></clipPath><clipPath id="8caee2c710"><path d="M 0 0.46875 L 8.773438 0.46875 L 8.773438 9.558594 L 0 9.558594 Z M 0 0.46875 " clip-rule="nonzero"/></clipPath><clipPath id="07fb4c61d2"><path d="M 5.648438 -1.382812 L 11.136719 5.617188 L 4.472656 10.84375 L -1.011719 3.839844 Z M 5.648438 -1.382812 " clip-rule="nonzero"/></clipPath><clipPath id="8e1f1318e4"><path d="M 8.390625 2.113281 L 6.492188 4.933594 L 8.585938 7.601562 L 5.316406 6.675781 L 3.417969 9.496094 L 3.300781 6.101562 L 0.03125 5.175781 L 3.226562 4.003906 L 3.105469 0.613281 L 5.199219 3.28125 Z M 8.390625 2.113281 " clip-rule="nonzero"/></clipPath><clipPath id="2128876602"><rect x="0" width="9" y="0" height="10"/></clipPath><clipPath id="a1bf9d6d1e"><path d="M 36 43 L 45 43 L 45 53 L 36 53 Z M 36 43 " clip-rule="nonzero"/></clipPath><clipPath id="3f54f97e73"><path d="M 41.683594 41.300781 L 47.179688 48.296875 L 40.519531 53.527344 L 35.023438 46.53125 Z M 41.683594 41.300781 " clip-rule="nonzero"/></clipPath><clipPath id="a026638802"><path d="M 44.425781 44.792969 L 42.53125 47.617188 L 44.625 50.285156 L 41.359375 49.359375 L 39.464844 52.183594 L 39.339844 48.789062 L 36.074219 47.863281 L 39.261719 46.691406 L 39.140625 43.300781 L 41.234375 45.96875 Z M 44.425781 44.792969 " clip-rule="nonzero"/></clipPath><clipPath id="6f617212e3"><path d="M 0 0.242188 L 8.746094 0.242188 L 8.746094 9.335938 L 0 9.335938 Z M 0 0.242188 " clip-rule="nonzero"/></clipPath><clipPath id="736b5174d9"><path d="M 5.683594 -1.699219 L 11.179688 5.296875 L 4.519531 10.527344 L -0.976562 3.53125 Z M 5.683594 -1.699219 " clip-rule="nonzero"/></clipPath><clipPath id="bc476d5730"><path d="M 8.425781 1.792969 L 6.53125 4.617188 L 8.625 7.285156 L 5.359375 6.359375 L 3.464844 9.183594 L 3.339844 5.789062 L 0.0742188 4.863281 L 3.261719 3.691406 L 3.140625 0.300781 L 5.234375 2.96875 Z M 8.425781 1.792969 " clip-rule="nonzero"/></clipPath><clipPath id="f683a8c16c"><rect x="0" width="9" y="0" height="10"/></clipPath><clipPath id="b63a39b4dc"><path d="M 199 42 L 209 42 L 209 51 L 199 51 Z M 199 42 " clip-rule="nonzero"/></clipPath><clipPath id="e9a480a73e"><path d="M 197.667969 46.03125 L 203.957031 39.742188 L 209.945312 45.730469 L 203.652344 52.019531 Z M 197.667969 46.03125 " clip-rule="nonzero"/></clipPath><clipPath id="acdc18b37e"><path d="M 200.808594 42.890625 L 203.835938 44.4375 L 206.234375 42.039062 L 205.707031 45.394531 L 208.734375 46.9375 L 205.378906 47.464844 L 204.851562 50.820312 L 203.308594 47.792969 L 199.953125 48.320312 L 202.351562 45.921875 Z M 200.808594 42.890625 " clip-rule="nonzero"/></clipPath><clipPath id="211486addc"><path d="M 0.804688 0 L 9.894531 0 L 9.894531 8.898438 L 0.804688 8.898438 Z M 0.804688 0 " clip-rule="nonzero"/></clipPath><clipPath id="9375dbc8a5"><path d="M -1.332031 4.03125 L 4.957031 -2.257812 L 10.945312 3.730469 L 4.652344 10.019531 Z M -1.332031 4.03125 " clip-rule="nonzero"/></clipPath><clipPath id="eb4d5cb3e9"><path d="M 1.808594 0.890625 L 4.835938 2.4375 L 7.234375 0.0390625 L 6.707031 3.394531 L 9.734375 4.9375 L 6.378906 5.464844 L 5.851562 8.820312 L 4.308594 5.792969 L 0.953125 6.320312 L 3.351562 3.921875 Z M 1.808594 0.890625 " clip-rule="nonzero"/></clipPath><clipPath id="a0d044ba8c"><rect x="0" width="10" y="0" height="9"/></clipPath><clipPath id="9c006892b0"><path d="M 160 22 L 169 22 L 169 32 L 160 32 Z M 160 22 " clip-rule="nonzero"/></clipPath><clipPath id="39c4e38dc9"><path d="M 157.882812 26.589844 L 164.175781 20.300781 L 170.160156 26.285156 L 163.871094 32.578125 Z M 157.882812 26.589844 " clip-rule="nonzero"/></clipPath><clipPath id="7d99a133a1"><path d="M 161.023438 23.449219 L 164.050781 24.996094 L 166.453125 22.597656 L 165.921875 25.949219 L 168.953125 27.496094 L 165.597656 28.023438 L 165.070312 31.378906 L 163.523438 28.351562 L 160.171875 28.878906 L 162.570312 26.476562 Z M 161.023438 23.449219 " clip-rule="nonzero"/></clipPath><clipPath id="7d017aea8b"><path d="M 0.0820312 0.425781 L 9 0.425781 L 9 9.515625 L 0.0820312 9.515625 Z M 0.0820312 0.425781 " clip-rule="nonzero"/></clipPath><clipPath id="99b6abfb98"><path d="M -2.117188 4.589844 L 4.175781 -1.699219 L 10.160156 4.285156 L 3.871094 10.578125 Z M -2.117188 4.589844 " clip-rule="nonzero"/></clipPath><clipPath id="1bb81d0b6e"><path d="M 1.023438 1.449219 L 4.050781 2.996094 L 6.453125 0.597656 L 5.921875 3.949219 L 8.953125 5.496094 L 5.597656 6.023438 L 5.070312 9.378906 L 3.523438 6.351562 L 0.171875 6.878906 L 2.570312 4.476562 Z M 1.023438 1.449219 " clip-rule="nonzero"/></clipPath><clipPath id="e8bfd973f2"><rect x="0" width="9" y="0" height="10"/></clipPath></defs><g clip-path="url(#06cfeb4d93)"><path stroke-linecap="round" transform="matrix(0.675617, 0.320466, -0.320466, 0.675617, 129.834198, 1.580428)" fill="none" stroke-linejoin="miter" d="M 0.998691 1.00301 L 162.480664 0.998084 " stroke="#fdb144" stroke-width="2" stroke-opacity="1" stroke-miterlimit="4"/></g><g clip-path="url(#cdd3e7a27d)"><path stroke-linecap="round" transform="matrix(0.672089, -0.3278, 0.3278, 0.672089, 8.958618, 54.098608)" fill="none" stroke-linejoin="miter" d="M 0.9991 0.997343 L 157.162385 1.001511 " stroke="#fdb144" stroke-width="2" stroke-opacity="1" stroke-miterlimit="4"/></g><path stroke-linecap="round" transform="matrix(0.677665, 0.316112, -0.316112, 0.677665, 123.121987, 14.915163)" fill="none" stroke-linejoin="miter" d="M 1.001699 1.001003 L 150.00761 0.999583 " stroke="#fdb144" stroke-width="2" stroke-opacity="1" stroke-miterlimit="4"/><path stroke-linecap="round" transform="matrix(0.674281, -0.323267, 0.323267, 0.674281, 24.321264, 61.978432)" fill="none" stroke-linejoin="miter" d="M 1.002573 0.999275 L 144.581259 0.999643 " stroke="#fdb144" stroke-width="2" stroke-opacity="1" stroke-miterlimit="4"/><path stroke-linecap="round" transform="matrix(0, -0.747768, 0.747768, 0, 224.387803, 72.956425)" fill="none" stroke-linejoin="miter" d="M 1.002174 1.001536 L 12.881279 1.001536 " stroke="#fdb144" stroke-width="2" stroke-opacity="1" stroke-miterlimit="4"/><path fill="#3782cb" d="M 145.457031 20.21875 L 151.835938 20.21875 L 151.835938 52.921875 L 145.457031 52.921875 Z M 145.457031 20.21875 " fill-opacity="1" fill-rule="evenodd"/><g clip-path="url(#5d1dd078a6)"><path fill="#3782cb" d="M 139.867188 14.441406 C 139.578125 14.664062 139.417969 15.203125 139.355469 16.183594 C 139.320312 16.675781 139.21875 17.167969 139.132812 17.273438 C 139.03125 17.394531 138.941406 18.253906 138.898438 19.480469 C 138.84375 21.183594 138.871094 21.570312 139.070312 21.992188 C 139.175781 22.214844 139.234375 22.492188 139.242188 23.828125 L 138.289062 50.175781 C 138.355469 51.195312 138.117188 52.035156 137.609375 52.910156 C 137.199219 53.574219 136.535156 54.378906 135.234375 55.875 C 130.046875 61.34375 127.523438 68.363281 127.054688 75.769531 L 127.074219 149.71875 C 127.324219 151.636719 128.300781 154.625 129.835938 155.269531 L 161.941406 155.269531 C 163.476562 154.625 164.453125 151.636719 164.703125 149.71875 L 164.722656 75.769531 C 164.253906 68.363281 161.726562 61.34375 156.539062 55.875 C 155.023438 54.128906 154.371094 53.324219 153.980469 52.585938 C 153.546875 51.898438 153.523438 51.15625 153.496094 50.375 L 152.535156 23.828125 C 152.542969 22.492188 152.601562 22.214844 152.707031 21.992188 C 152.90625 21.570312 152.933594 21.183594 152.875 19.480469 C 152.835938 18.253906 152.742188 17.394531 152.644531 17.273438 C 152.554688 17.167969 152.453125 16.675781 152.421875 16.183594 C 152.359375 15.203125 152.199219 14.664062 151.90625 14.441406 C 147.910156 14.136719 143.867188 14.105469 139.867188 14.441406 Z M 149.921875 22.972656 L 150.621094 22.972656 L 150.621094 48.097656 L 149.921875 48.097656 Z M 157.738281 77.132812 L 157.738281 149.851562 L 156.902344 149.851562 L 156.902344 77.132812 Z M 160.671875 77.132812 L 160.671875 149.851562 L 158.855469 149.851562 L 158.855469 77.132812 Z M 160.671875 77.132812 " fill-opacity="1" fill-rule="nonzero"/></g><g clip-path="url(#55826f72a9)"><path fill="#c7333f" d="M 105.410156 73.617188 L 116.574219 73.617188 L 116.574219 151.78125 L 105.410156 151.78125 Z M 105.410156 73.617188 " fill-opacity="1" fill-rule="evenodd"/></g><path fill="#c7333f" d="M 99.027344 20.964844 L 105.40625 20.964844 L 105.40625 53.667969 L 99.027344 53.667969 Z M 99.027344 20.964844 " fill-opacity="1" fill-rule="evenodd"/><g clip-path="url(#0609a4115b)"><path fill="#c7333f" d="M 93.441406 15.191406 C 93.148438 15.410156 92.988281 15.953125 92.925781 16.929688 C 92.890625 17.421875 92.792969 17.914062 92.703125 18.023438 C 92.605469 18.140625 92.511719 19.003906 92.472656 20.230469 C 92.414062 21.929688 92.441406 22.320312 92.640625 22.742188 C 92.746094 22.964844 92.804688 23.242188 92.8125 24.578125 L 91.859375 50.921875 C 91.929688 51.941406 91.6875 52.785156 91.179688 53.660156 C 90.769531 54.320312 90.105469 55.125 88.808594 56.621094 C 83.621094 62.09375 81.09375 69.109375 80.625 76.515625 L 80.644531 150.464844 C 80.894531 152.382812 81.871094 155.375 83.40625 156.019531 L 115.511719 156.019531 C 117.046875 155.375 118.023438 152.382812 118.273438 150.464844 L 118.292969 76.515625 C 117.824219 69.109375 115.300781 62.09375 110.109375 56.621094 C 108.597656 54.875 107.941406 54.070312 107.554688 53.335938 C 107.117188 52.644531 107.09375 51.90625 107.066406 51.121094 L 106.105469 24.578125 C 106.113281 23.242188 106.171875 22.964844 106.277344 22.742188 C 106.476562 22.320312 106.503906 21.929688 106.445312 20.230469 C 106.40625 19.003906 106.316406 18.140625 106.214844 18.023438 C 106.125 17.914062 106.027344 17.421875 105.992188 16.929688 C 105.929688 15.953125 105.769531 15.410156 105.480469 15.191406 C 101.480469 14.882812 97.4375 14.855469 93.441406 15.191406 Z M 103.492188 23.722656 L 104.191406 23.722656 L 104.191406 48.847656 L 103.492188 48.847656 Z M 111.3125 77.878906 L 111.3125 150.601562 L 110.472656 150.601562 L 110.472656 77.878906 Z M 114.242188 77.878906 L 114.242188 150.601562 L 112.425781 150.601562 L 112.425781 77.878906 Z M 114.242188 77.878906 " fill-opacity="1" fill-rule="nonzero"/></g><path fill="#fdb144" d="M 122.417969 7.796875 L 130.367188 7.796875 L 130.367188 48.535156 L 122.417969 48.535156 Z M 122.417969 7.796875 " fill-opacity="1" fill-rule="evenodd"/><g clip-path="url(#c66a2e1cb6)"><path fill="#fdb144" d="M 115.457031 0.601562 C 115.09375 0.878906 114.898438 1.550781 114.816406 2.769531 C 114.777344 3.382812 114.652344 3.996094 114.539062 4.128906 C 114.414062 4.277344 114.304688 5.351562 114.25 6.878906 C 114.179688 9 114.214844 9.484375 114.464844 10.007812 C 114.59375 10.285156 114.664062 10.632812 114.675781 12.296875 L 113.488281 45.117188 C 113.574219 46.386719 113.273438 47.433594 112.640625 48.523438 C 112.132812 49.351562 111.304688 50.351562 109.6875 52.214844 C 103.222656 59.03125 100.078125 67.773438 99.492188 76.996094 L 99.519531 169.121094 C 99.828125 171.507812 101.042969 175.234375 102.960938 176.039062 L 142.953125 176.039062 C 144.867188 175.234375 146.085938 171.507812 146.394531 169.121094 L 146.417969 76.996094 C 145.835938 67.773438 142.6875 59.03125 136.226562 52.214844 C 134.339844 50.039062 133.523438 49.039062 133.039062 48.121094 C 132.496094 47.261719 132.46875 46.339844 132.433594 45.363281 L 131.238281 12.296875 C 131.246094 10.632812 131.320312 10.285156 131.449219 10.007812 C 131.699219 9.484375 131.734375 9 131.660156 6.878906 C 131.609375 5.351562 131.496094 4.277344 131.375 4.128906 C 131.261719 3.996094 131.136719 3.382812 131.097656 2.769531 C 131.015625 1.550781 130.816406 0.878906 130.453125 0.601562 C 125.472656 0.21875 120.4375 0.183594 115.457031 0.601562 Z M 127.984375 11.230469 L 128.851562 11.230469 L 128.851562 42.527344 L 127.984375 42.527344 Z M 137.71875 78.695312 L 137.71875 169.289062 L 136.675781 169.289062 L 136.675781 78.695312 Z M 141.371094 78.695312 L 141.371094 169.289062 L 139.113281 169.289062 L 139.113281 78.695312 Z M 141.371094 78.695312 " fill-opacity="1" fill-rule="nonzero"/></g><path stroke-linecap="round" transform="matrix(0, -0.747768, 0.747768, 0, 24.06039, 72.208657)" fill="none" stroke-linejoin="miter" d="M 0.999935 1.000583 L 12.87904 1.000583 " stroke="#fdb144" stroke-width="2" stroke-opacity="1" stroke-miterlimit="4"/><path stroke-linecap="round" transform="matrix(0.0000000013051, 0.747768, -0.747768, 0.0000000013051, 239.961048, 54.354699)" fill="none" stroke-linejoin="miter" d="M 0.998791 0.997908 L 22.881628 0.997908 " stroke="#fdb144" stroke-width="2" stroke-opacity="1" stroke-miterlimit="4"/><path stroke-linecap="round" transform="matrix(0, -0.747768, 0.747768, 0, 237.654008, 141.992439)" fill="none" stroke-linejoin="miter" d="M 0.998098 1.00076 L 24.913024 1.00076 " stroke="#fdb144" stroke-width="2" stroke-opacity="1" stroke-miterlimit="4"/><path stroke-linecap="round" transform="matrix(0.0000000013051, 0.747768, -0.747768, 0.0000000013051, 10.778927, 54.354699)" fill="none" stroke-linejoin="miter" d="M 0.998791 0.999879 L 22.881628 0.999879 " stroke="#fdb144" stroke-width="2" stroke-opacity="1" stroke-miterlimit="4"/><path stroke-linecap="butt" transform="matrix(-0.747768, -0.0000000013051, 0.0000000013051, -0.747768, 242.017993, 73.706413)" fill="none" stroke-linejoin="miter" d="M -0.00205723 1.002158 L 313.200941 1.002158 " stroke="#ffffff" stroke-width="2" stroke-opacity="1" stroke-miterlimit="4"/><path stroke-linecap="butt" transform="matrix(0.747768, 0, 0, 0.747768, 7.80483, 74.454157)" fill="none" stroke-linejoin="miter" d="M -0.000191092 1.999366 L 313.228926 1.999366 " stroke="#fdb144" stroke-width="4" stroke-opacity="1" stroke-miterlimit="4"/><g clip-path="url(#59147d2c15)"><path stroke-linecap="round" transform="matrix(-0.672281, -0.327407, 0.327407, -0.672281, 124.535182, 197.814255)" fill="none" stroke-linejoin="miter" d="M 0.997603 0.998432 L 171.174985 1.000755 " stroke="#fdb144" stroke-width="2" stroke-opacity="1" stroke-miterlimit="4"/></g><path stroke-linecap="round" transform="matrix(0, -0.747768, 0.747768, 0, 9.146557, 141.081885)" fill="none" stroke-linejoin="miter" d="M 0.997566 1.000276 L 24.698313 1.000276 " stroke="#fdb144" stroke-width="2" stroke-opacity="1" stroke-miterlimit="4"/><g clip-path="url(#a8346f917e)"><g clip-path="url(#6022ec9c90)"><g clip-path="url(#76cab56f3b)"><path fill="#c7333f" d="M 105.699219 78.832031 L 116.707031 78.921875 L 116.09375 155.964844 L 105.085938 155.878906 Z M 105.699219 78.832031 " fill-opacity="1" fill-rule="evenodd"/></g></g></g><g clip-path="url(#87e64dfeae)"><g clip-path="url(#fdfe4b3f79)"><g clip-path="url(#a1f19d539f)"><path fill="#c7333f" d="M 94.363281 21.152344 C 94.074219 21.367188 93.910156 21.898438 93.839844 22.863281 C 93.804688 23.347656 93.703125 23.832031 93.613281 23.9375 C 93.515625 24.054688 93.417969 24.902344 93.367188 26.109375 C 93.296875 27.789062 93.320312 28.171875 93.515625 28.589844 C 93.617188 28.808594 93.671875 29.082031 93.667969 30.398438 L 92.523438 56.359375 C 92.582031 57.363281 92.339844 58.191406 91.832031 59.050781 C 91.421875 59.699219 90.761719 60.488281 89.46875 61.953125 C 84.3125 67.304688 81.769531 74.199219 81.25 81.496094 L 80.691406 154.386719 C 80.917969 156.277344 81.859375 159.234375 83.367188 159.878906 L 115.011719 160.132812 C 116.53125 159.507812 117.519531 156.570312 117.777344 154.679688 L 118.378906 81.792969 C 117.972656 74.488281 115.539062 67.550781 110.46875 62.117188 C 108.988281 60.386719 108.351562 59.589844 107.972656 58.859375 C 107.546875 58.175781 107.53125 57.449219 107.511719 56.671875 L 106.773438 30.503906 C 106.792969 29.1875 106.851562 28.914062 106.957031 28.695312 C 107.15625 28.28125 107.1875 27.898438 107.144531 26.21875 C 107.109375 25.011719 107.027344 24.160156 106.933594 24.042969 C 106.84375 23.9375 106.75 23.453125 106.722656 22.964844 C 106.664062 22 106.511719 21.46875 106.226562 21.246094 C 102.289062 20.910156 98.304688 20.851562 94.363281 21.152344 Z M 104.203125 29.640625 L 104.890625 29.644531 L 104.695312 54.410156 L 104.007812 54.402344 Z M 111.484375 83.082031 L 110.914062 154.757812 L 110.089844 154.753906 L 110.660156 83.074219 Z M 114.375 83.105469 L 113.804688 154.78125 L 112.015625 154.765625 L 112.585938 83.089844 Z M 114.375 83.105469 " fill-opacity="1" fill-rule="nonzero"/></g></g></g><g clip-path="url(#1d0f708020)"><g clip-path="url(#2597562dc7)"><g clip-path="url(#6ff01a8992)"><path fill="#3782cb" d="M 152.878906 78.832031 L 163.882812 78.921875 L 163.269531 155.964844 L 152.265625 155.878906 Z M 152.878906 78.832031 " fill-opacity="1" fill-rule="evenodd"/></g></g></g><g clip-path="url(#1b551e56c2)"><g clip-path="url(#731468b831)"><g clip-path="url(#b845eb2601)"><path fill="#3782cb" d="M 141.539062 21.152344 C 141.25 21.367188 141.089844 21.898438 141.015625 22.863281 C 140.980469 23.347656 140.878906 23.832031 140.789062 23.9375 C 140.691406 24.054688 140.59375 24.902344 140.542969 26.109375 C 140.472656 27.789062 140.496094 28.171875 140.691406 28.589844 C 140.792969 28.808594 140.847656 29.082031 140.84375 30.398438 L 139.699219 56.359375 C 139.757812 57.363281 139.515625 58.191406 139.007812 59.050781 C 138.601562 59.699219 137.9375 60.488281 136.648438 61.953125 C 131.492188 67.304688 128.945312 74.199219 128.425781 81.496094 L 127.867188 154.386719 C 128.097656 156.277344 129.035156 159.234375 130.542969 159.878906 L 162.1875 160.132812 C 163.707031 159.507812 164.695312 156.570312 164.953125 154.679688 L 165.554688 81.792969 C 165.152344 74.488281 162.714844 67.550781 157.644531 62.117188 C 156.164062 60.386719 155.527344 59.589844 155.148438 58.859375 C 154.726562 58.175781 154.707031 57.449219 154.6875 56.671875 L 153.949219 30.503906 C 153.96875 29.1875 154.027344 28.914062 154.132812 28.695312 C 154.332031 28.28125 154.363281 27.898438 154.320312 26.21875 C 154.289062 25.011719 154.207031 24.160156 154.109375 24.042969 C 154.023438 23.9375 153.925781 23.453125 153.898438 22.964844 C 153.84375 22 153.6875 21.46875 153.40625 21.246094 C 149.464844 20.910156 145.480469 20.851562 141.539062 21.152344 Z M 151.382812 29.640625 L 152.070312 29.644531 L 151.871094 54.410156 L 151.183594 54.402344 Z M 158.660156 83.082031 L 158.089844 154.757812 L 157.265625 154.753906 L 157.835938 83.074219 Z M 161.550781 83.105469 L 160.980469 154.78125 L 159.191406 154.765625 L 159.761719 83.089844 Z M 161.550781 83.105469 " fill-opacity="1" fill-rule="nonzero"/></g></g></g><g clip-path="url(#fe2c61151b)"><path fill="#fdb144" d="M 129.796875 67.089844 L 143.707031 67.089844 L 143.707031 164.464844 L 129.796875 164.464844 Z M 129.796875 67.089844 " fill-opacity="1" fill-rule="evenodd"/></g><g clip-path="url(#6b93a88f20)"><path fill="#fdb144" d="M 114.882812 -5.691406 C 114.523438 -5.417969 114.324219 -4.746094 114.242188 -3.523438 C 114.203125 -2.914062 114.078125 -2.300781 113.964844 -2.167969 C 113.84375 -2.019531 113.730469 -0.945312 113.679688 0.582031 C 113.605469 2.703125 113.640625 3.1875 113.890625 3.710938 C 114.019531 3.988281 114.09375 4.335938 114.101562 6 L 112.917969 38.820312 C 113 40.089844 112.699219 41.136719 112.070312 42.226562 C 111.558594 43.054688 110.730469 44.054688 109.113281 45.917969 C 102.652344 52.734375 99.503906 61.476562 98.917969 70.703125 L 98.945312 162.824219 C 99.253906 165.210938 100.472656 168.9375 102.386719 169.742188 L 142.378906 169.742188 C 144.292969 168.9375 145.511719 165.210938 145.820312 162.824219 L 145.847656 70.703125 C 145.261719 61.476562 142.117188 52.734375 135.652344 45.917969 C 133.765625 43.742188 132.953125 42.742188 132.464844 41.824219 C 131.921875 40.964844 131.894531 40.042969 131.859375 39.066406 L 130.664062 6 C 130.675781 4.335938 130.746094 3.988281 130.875 3.710938 C 131.125 3.1875 131.160156 2.703125 131.089844 0.582031 C 131.035156 -0.945312 130.925781 -2.019531 130.800781 -2.167969 C 130.6875 -2.300781 130.5625 -2.914062 130.523438 -3.523438 C 130.441406 -4.746094 130.246094 -5.417969 129.882812 -5.691406 C 124.902344 -6.078125 119.867188 -6.113281 114.886719 -5.691406 Z M 127.410156 4.933594 L 128.277344 4.933594 L 128.277344 36.234375 L 127.410156 36.234375 Z M 137.148438 72.398438 L 137.148438 162.992188 L 136.105469 162.992188 L 136.105469 72.398438 Z M 140.800781 72.398438 L 140.800781 162.992188 L 138.539062 162.992188 L 138.539062 72.398438 Z M 140.800781 72.398438 " fill-opacity="1" fill-rule="nonzero"/></g><path stroke-linecap="round" transform="matrix(-0.679897, 0.311282, -0.311282, -0.679897, 225.488598, 132.857052)" fill="none" stroke-linejoin="miter" d="M 1.001525 1.000927 L 150.184962 1.001819 " stroke="#fdb144" stroke-width="2" stroke-opacity="1" stroke-miterlimit="4"/><path stroke-linecap="round" transform="matrix(-0.672407, -0.327147, 0.327147, -0.672407, 122.474425, 179.907611)" fill="none" stroke-linejoin="miter" d="M 1.001368 1.002021 L 144.914523 0.998126 " stroke="#fdb144" stroke-width="2" stroke-opacity="1" stroke-miterlimit="4"/><path stroke-linecap="round" transform="matrix(0, 0.747768, -0.747768, 0, 25.438925, 121.871656)" fill="none" stroke-linejoin="miter" d="M 1.002233 0.999666 L 12.881338 0.999666 " stroke="#fdb144" stroke-width="2" stroke-opacity="1" stroke-miterlimit="4"/><path stroke-linecap="round" transform="matrix(0, 0.747768, -0.747768, 0, 225.76634, 122.619424)" fill="none" stroke-linejoin="miter" d="M 0.999995 0.998717 L 12.8791 0.998717 " stroke="#fdb144" stroke-width="2" stroke-opacity="1" stroke-miterlimit="4"/><path stroke-linecap="butt" transform="matrix(0.747768, 0.000000000000000136, -0.000000000000000136, 0.747768, 7.807218, 121.285784)" fill="none" stroke-linejoin="miter" d="M 0.00183951 1.002146 L 313.199614 1.002146 " stroke="#ffffff" stroke-width="2" stroke-opacity="1" stroke-miterlimit="4"/><g clip-path="url(#bbc79c9255)"><path stroke-linecap="round" transform="matrix(-0.672089, 0.3278, -0.3278, -0.672089, 238.98943, 141.557798)" fill="none" stroke-linejoin="miter" d="M 1.002297 0.999134 L 170.615667 1.001487 " stroke="#fdb144" stroke-width="2" stroke-opacity="1" stroke-miterlimit="4"/></g><g fill="#fdb144" fill-opacity="1"><g transform="translate(8.374857, 106.877021)"><g><path d="M 2.0625 0 L 2.0625 -19.546875 L 7.703125 -19.546875 L 7.703125 -5.21875 L 15.6875 -5.21875 L 15.6875 0 Z M 2.0625 0 "/></g></g></g><g fill="#fdb144" fill-opacity="1"><g transform="translate(24.759708, 106.877021)"><g><path d="M 2.0625 0 L 2.0625 -19.546875 L 7.703125 -19.546875 L 7.703125 0 Z M 2.0625 0 "/></g></g></g><g fill="#fdb144" fill-opacity="1"><g transform="translate(34.529205, 106.877021)"><g><path d="M 11.59375 0.421875 C 10.019531 0.421875 8.585938 0.175781 7.296875 -0.3125 C 6.003906 -0.8125 4.882812 -1.515625 3.9375 -2.421875 C 2.988281 -3.335938 2.253906 -4.414062 1.734375 -5.65625 C 1.210938 -6.90625 0.953125 -8.273438 0.953125 -9.765625 C 0.953125 -11.253906 1.210938 -12.625 1.734375 -13.875 C 2.253906 -15.125 2.988281 -16.203125 3.9375 -17.109375 C 4.882812 -18.023438 6.003906 -18.726562 7.296875 -19.21875 C 8.585938 -19.71875 10.019531 -19.96875 11.59375 -19.96875 C 13.15625 -19.96875 14.582031 -19.71875 15.875 -19.21875 C 17.164062 -18.726562 18.285156 -18.023438 19.234375 -17.109375 C 20.179688 -16.203125 20.914062 -15.125 21.4375 -13.875 C 21.957031 -12.625 22.21875 -11.253906 22.21875 -9.765625 C 22.21875 -7.722656 21.726562 -5.914062 20.75 -4.34375 C 19.78125 -2.769531 18.46875 -1.570312 16.8125 -0.75 L 17.03125 -0.21875 C 17.289062 0.375 17.578125 0.765625 17.890625 0.953125 C 18.210938 1.148438 18.773438 1.25 19.578125 1.25 L 21 1.25 L 21 5.21875 L 18.09375 5.21875 C 15.34375 5.21875 13.441406 4.007812 12.390625 1.59375 L 11.890625 0.421875 Z M 6.671875 -9.765625 C 6.671875 -8.804688 6.878906 -7.945312 7.296875 -7.1875 C 7.722656 -6.4375 8.304688 -5.847656 9.046875 -5.421875 C 9.785156 -5.003906 10.632812 -4.796875 11.59375 -4.796875 C 12.5625 -4.796875 13.410156 -5.003906 14.140625 -5.421875 C 14.878906 -5.847656 15.457031 -6.4375 15.875 -7.1875 C 16.289062 -7.945312 16.5 -8.804688 16.5 -9.765625 C 16.5 -10.753906 16.289062 -11.617188 15.875 -12.359375 C 15.457031 -13.109375 14.878906 -13.691406 14.140625 -14.109375 C 13.410156 -14.535156 12.5625 -14.75 11.59375 -14.75 C 10.632812 -14.75 9.785156 -14.535156 9.046875 -14.109375 C 8.304688 -13.691406 7.722656 -13.109375 7.296875 -12.359375 C 6.878906 -11.617188 6.671875 -10.753906 6.671875 -9.765625 Z M 6.671875 -9.765625 "/></g></g></g><g fill="#fdb144" fill-opacity="1"><g transform="translate(57.724795, 106.877021)"><g><path d="M 10.46875 0.421875 C 8.71875 0.421875 7.203125 0.0820312 5.921875 -0.59375 C 4.640625 -1.28125 3.648438 -2.253906 2.953125 -3.515625 C 2.253906 -4.785156 1.90625 -6.296875 1.90625 -8.046875 L 1.90625 -19.546875 L 7.53125 -19.546875 L 7.53125 -8.40625 C 7.53125 -6.039062 8.507812 -4.859375 10.46875 -4.859375 C 12.425781 -4.859375 13.40625 -6.039062 13.40625 -8.40625 L 13.40625 -19.546875 L 19.015625 -19.546875 L 19.015625 -8.046875 C 19.015625 -6.296875 18.671875 -4.785156 17.984375 -3.515625 C 17.296875 -2.253906 16.3125 -1.28125 15.03125 -0.59375 C 13.757812 0.0820312 12.238281 0.421875 10.46875 0.421875 Z M 10.46875 0.421875 "/></g></g></g><g fill="#fdb144" fill-opacity="1"><g transform="translate(78.659441, 106.877021)"><g><path d="M 11.59375 0.421875 C 10.019531 0.421875 8.585938 0.175781 7.296875 -0.3125 C 6.003906 -0.8125 4.882812 -1.515625 3.9375 -2.421875 C 2.988281 -3.335938 2.253906 -4.414062 1.734375 -5.65625 C 1.210938 -6.90625 0.953125 -8.273438 0.953125 -9.765625 C 0.953125 -11.253906 1.210938 -12.625 1.734375 -13.875 C 2.253906 -15.125 2.988281 -16.203125 3.9375 -17.109375 C 4.882812 -18.023438 6.003906 -18.726562 7.296875 -19.21875 C 8.585938 -19.71875 10.019531 -19.96875 11.59375 -19.96875 C 13.15625 -19.96875 14.582031 -19.71875 15.875 -19.21875 C 17.164062 -18.726562 18.285156 -18.023438 19.234375 -17.109375 C 20.179688 -16.203125 20.914062 -15.125 21.4375 -13.875 C 21.957031 -12.625 22.21875 -11.253906 22.21875 -9.765625 C 22.21875 -8.273438 21.957031 -6.90625 21.4375 -5.65625 C 20.914062 -4.414062 20.179688 -3.335938 19.234375 -2.421875 C 18.285156 -1.515625 17.164062 -0.8125 15.875 -0.3125 C 14.582031 0.175781 13.15625 0.421875 11.59375 0.421875 Z M 6.671875 -9.765625 C 6.671875 -8.804688 6.878906 -7.945312 7.296875 -7.1875 C 7.722656 -6.4375 8.304688 -5.847656 9.046875 -5.421875 C 9.785156 -5.003906 10.632812 -4.796875 11.59375 -4.796875 C 12.5625 -4.796875 13.410156 -5.003906 14.140625 -5.421875 C 14.878906 -5.847656 15.457031 -6.4375 15.875 -7.1875 C 16.289062 -7.945312 16.5 -8.804688 16.5 -9.765625 C 16.5 -10.753906 16.289062 -11.617188 15.875 -12.359375 C 15.457031 -13.109375 14.878906 -13.691406 14.140625 -14.109375 C 13.410156 -14.535156 12.5625 -14.75 11.59375 -14.75 C 10.632812 -14.75 9.785156 -14.535156 9.046875 -14.109375 C 8.304688 -13.691406 7.722656 -13.109375 7.296875 -12.359375 C 6.878906 -11.617188 6.671875 -10.753906 6.671875 -9.765625 Z M 6.671875 -9.765625 "/></g></g></g><g fill="#fdb144" fill-opacity="1"><g transform="translate(101.855031, 106.877021)"><g><path d="M 2.0625 0 L 2.0625 -19.546875 L 10.96875 -19.546875 C 12.550781 -19.546875 13.914062 -19.257812 15.0625 -18.6875 C 16.207031 -18.125 17.09375 -17.320312 17.71875 -16.28125 C 18.34375 -15.238281 18.65625 -13.988281 18.65625 -12.53125 C 18.65625 -11.175781 18.375 -9.988281 17.8125 -8.96875 C 17.25 -7.957031 16.445312 -7.164062 15.40625 -6.59375 L 19.015625 0 L 12.625 0 L 9.828125 -5.5625 L 7.703125 -5.5625 L 7.703125 0 Z M 7.59375 -10.046875 L 10.21875 -10.046875 C 11.113281 -10.046875 11.796875 -10.257812 12.265625 -10.6875 C 12.742188 -11.125 12.984375 -11.734375 12.984375 -12.515625 C 12.984375 -13.296875 12.742188 -13.894531 12.265625 -14.3125 C 11.796875 -14.726562 11.113281 -14.9375 10.21875 -14.9375 L 7.59375 -14.9375 Z M 7.59375 -10.046875 "/></g></g></g><g fill="#fdb144" fill-opacity="1"><g transform="translate(121.952296, 106.877021)"><g/></g></g><g fill="#fdb144" fill-opacity="1"><g transform="translate(128.400162, 106.877021)"><g><path d="M 2.0625 0 L 2.0625 -19.546875 L 10.296875 -19.546875 C 11.953125 -19.546875 13.390625 -19.25 14.609375 -18.65625 C 15.835938 -18.0625 16.78125 -17.210938 17.4375 -16.109375 C 18.09375 -15.015625 18.421875 -13.710938 18.421875 -12.203125 C 18.421875 -10.710938 18.09375 -9.410156 17.4375 -8.296875 C 16.78125 -7.191406 15.835938 -6.335938 14.609375 -5.734375 C 13.390625 -5.128906 11.953125 -4.828125 10.296875 -4.828125 L 7.703125 -4.828125 L 7.703125 0 Z M 7.65625 -9.546875 L 9.765625 -9.546875 C 10.703125 -9.546875 11.429688 -9.78125 11.953125 -10.25 C 12.472656 -10.71875 12.734375 -11.359375 12.734375 -12.171875 C 12.734375 -12.992188 12.472656 -13.632812 11.953125 -14.09375 C 11.429688 -14.5625 10.703125 -14.796875 9.765625 -14.796875 L 7.65625 -14.796875 Z M 7.65625 -9.546875 "/></g></g></g><g fill="#fdb144" fill-opacity="1"><g transform="translate(147.464647, 106.877021)"><g><path d="M 0.140625 0 L 7.734375 -19.546875 L 13.3125 -19.546875 L 20.90625 0 L 14.90625 0 L 13.84375 -2.765625 L 7.171875 -2.765625 L 6.109375 0 Z M 8.34375 -6.890625 L 12.703125 -6.890625 L 10.53125 -12.953125 Z M 8.34375 -6.890625 "/></g></g></g><g fill="#fdb144" fill-opacity="1"><g transform="translate(168.510941, 106.877021)"><g><path d="M 2.0625 0 L 2.0625 -19.546875 L 7.703125 -19.546875 L 7.703125 -5.21875 L 15.6875 -5.21875 L 15.6875 0 Z M 2.0625 0 "/></g></g></g><g fill="#fdb144" fill-opacity="1"><g transform="translate(184.895792, 106.877021)"><g><path d="M 0.140625 0 L 7.734375 -19.546875 L 13.3125 -19.546875 L 20.90625 0 L 14.90625 0 L 13.84375 -2.765625 L 7.171875 -2.765625 L 6.109375 0 Z M 8.34375 -6.890625 L 12.703125 -6.890625 L 10.53125 -12.953125 Z M 8.34375 -6.890625 "/></g></g></g><g fill="#fdb144" fill-opacity="1"><g transform="translate(205.942086, 106.877021)"><g><path d="M 6.734375 0 L 6.734375 -14.328125 L 0.78125 -14.328125 L 0.78125 -19.546875 L 18.28125 -19.546875 L 18.28125 -14.328125 L 12.34375 -14.328125 L 12.34375 0 Z M 6.734375 0 "/></g></g></g><g fill="#fdb144" fill-opacity="1"><g transform="translate(225.006583, 106.877021)"><g><path d="M 2.0625 0 L 2.0625 -19.546875 L 15.46875 -19.546875 L 15.46875 -15 L 7.65625 -15 L 7.65625 -12.140625 L 14.71875 -12.140625 L 14.71875 -7.625 L 7.65625 -7.625 L 7.65625 -4.609375 L 15.78125 -4.609375 L 15.78125 0 Z M 2.0625 0 "/></g></g></g><g fill="#ffffff" fill-opacity="1"><g transform="translate(51.231519, 45.452438)"><g><path d="M 0.78125 -0.390625 L -2.4375 -6.984375 L 0.515625 -8.421875 C 1.191406 -8.742188 1.804688 -8.835938 2.359375 -8.703125 C 2.910156 -8.578125 3.316406 -8.25 3.578125 -7.71875 C 3.734375 -7.414062 3.800781 -7.101562 3.78125 -6.78125 C 3.757812 -6.457031 3.660156 -6.164062 3.484375 -5.90625 C 3.867188 -5.914062 4.210938 -5.828125 4.515625 -5.640625 C 4.828125 -5.460938 5.066406 -5.203125 5.234375 -4.859375 C 5.421875 -4.484375 5.488281 -4.109375 5.4375 -3.734375 C 5.382812 -3.367188 5.222656 -3.023438 4.953125 -2.703125 C 4.691406 -2.378906 4.335938 -2.109375 3.890625 -1.890625 Z M 1.703125 -2.296875 L 3.09375 -2.96875 C 3.382812 -3.113281 3.578125 -3.289062 3.671875 -3.5 C 3.765625 -3.71875 3.75 -3.957031 3.625 -4.21875 C 3.5 -4.46875 3.320312 -4.617188 3.09375 -4.671875 C 2.875 -4.734375 2.617188 -4.691406 2.328125 -4.546875 L 0.9375 -3.875 Z M 0.375 -5.015625 L 1.609375 -5.625 C 1.898438 -5.757812 2.085938 -5.929688 2.171875 -6.140625 C 2.253906 -6.359375 2.238281 -6.582031 2.125 -6.8125 C 2.007812 -7.0625 1.84375 -7.207031 1.625 -7.25 C 1.414062 -7.300781 1.164062 -7.257812 0.875 -7.125 L -0.359375 -6.515625 Z M 0.375 -5.015625 "/></g></g></g><g fill="#ffffff" fill-opacity="1"><g transform="translate(57.72175, 42.28694)"><g><path d="M 0.78125 -0.390625 L -2.4375 -6.984375 L 1.90625 -9.09375 L 2.515625 -7.84375 L -0.328125 -6.453125 L 0.34375 -5.0625 L 2.9375 -6.328125 L 3.546875 -5.078125 L 0.953125 -3.8125 L 1.65625 -2.390625 L 4.59375 -3.828125 L 5.21875 -2.546875 Z M 0.78125 -0.390625 "/></g></g></g><g fill="#ffffff" fill-opacity="1"><g transform="translate(63.43014, 39.502772)"><g><path d="M 0.78125 -0.390625 L -2.4375 -6.984375 L 1.90625 -9.09375 L 2.515625 -7.84375 L -0.328125 -6.453125 L 0.34375 -5.0625 L 2.9375 -6.328125 L 3.546875 -5.078125 L 0.953125 -3.8125 L 1.65625 -2.390625 L 4.59375 -3.828125 L 5.21875 -2.546875 Z M 0.78125 -0.390625 "/></g></g></g><g fill="#ffffff" fill-opacity="1"><g transform="translate(69.13853, 36.718604)"><g><path d="M 0.78125 -0.390625 L -2.4375 -6.984375 L 0.390625 -8.359375 C 0.898438 -8.597656 1.382812 -8.71875 1.84375 -8.71875 C 2.300781 -8.71875 2.710938 -8.597656 3.078125 -8.359375 C 3.441406 -8.117188 3.738281 -7.765625 3.96875 -7.296875 C 4.207031 -6.804688 4.300781 -6.332031 4.25 -5.875 C 4.195312 -5.425781 4.019531 -5.019531 3.71875 -4.65625 L 6.1875 -3.015625 L 4.453125 -2.171875 L 2.28125 -3.65625 L 1.296875 -3.15625 L 2.296875 -1.109375 Z M 0.671875 -4.421875 L 1.796875 -4.984375 C 2.160156 -5.160156 2.398438 -5.378906 2.515625 -5.640625 C 2.628906 -5.910156 2.609375 -6.207031 2.453125 -6.53125 C 2.296875 -6.851562 2.070312 -7.050781 1.78125 -7.125 C 1.5 -7.207031 1.175781 -7.160156 0.8125 -6.984375 L -0.3125 -6.421875 Z M 0.671875 -4.421875 "/></g></g></g><g fill="#ffffff" fill-opacity="1"><g transform="translate(169.414694, 32.268765)"><g><path d="M 2.21875 1.078125 L 3.3125 -6.546875 L 4.90625 -5.765625 L 4.546875 -3.46875 L 4.1875 -0.953125 L 6 -2.765625 L 7.703125 -4.40625 L 9.109375 -3.71875 L 8.828125 -1.375 L 8.546875 1.203125 L 10.3125 -0.65625 L 11.921875 -2.34375 L 13.515625 -1.578125 L 8.15625 3.984375 L 6.6875 3.265625 L 7.28125 -1.734375 L 3.6875 1.796875 Z M 2.21875 1.078125 "/></g></g></g><g fill="#ffffff" fill-opacity="1"><g transform="translate(179.795292, 37.331722)"><g><path d="M 0.78125 0.390625 L 4 -6.203125 L 5.515625 -5.484375 L 2.296875 1.109375 Z M 0.78125 0.390625 "/></g></g></g><g fill="#ffffff" fill-opacity="1"><g transform="translate(182.875564, 38.834071)"><g><path d="M 0.78125 0.390625 L 4 -6.203125 L 5.28125 -5.59375 L 6.234375 -0.15625 L 8.1875 -4.171875 L 9.671875 -3.4375 L 6.453125 3.15625 L 5.203125 2.53125 L 4.25 -2.9375 L 2.28125 1.109375 Z M 0.78125 0.390625 "/></g></g></g><g fill="#ffffff" fill-opacity="1"><g transform="translate(190.128798, 42.371709)"><g><path d="M 0.78125 0.390625 L 4 -6.203125 L 8.34375 -4.09375 L 7.734375 -2.84375 L 4.890625 -4.234375 L 4.21875 -2.84375 L 6.8125 -1.578125 L 6.203125 -0.328125 L 3.609375 -1.59375 L 2.90625 -0.171875 L 5.84375 1.265625 L 5.21875 2.546875 Z M 0.78125 0.390625 "/></g></g></g><g fill="#ffffff" fill-opacity="1"><g transform="translate(164.287195, 171.860413)"><g><path d="M 3.15625 -1.375 C 2.601562 -1.113281 2.082031 -0.972656 1.59375 -0.953125 C 1.101562 -0.941406 0.671875 -1.050781 0.296875 -1.28125 C -0.078125 -1.507812 -0.378906 -1.851562 -0.609375 -2.3125 L 0.84375 -3.03125 C 1 -2.707031 1.226562 -2.507812 1.53125 -2.4375 C 1.84375 -2.375 2.175781 -2.429688 2.53125 -2.609375 C 2.84375 -2.765625 3.0625 -2.945312 3.1875 -3.15625 C 3.3125 -3.363281 3.320312 -3.578125 3.21875 -3.796875 C 3.101562 -4.035156 2.898438 -4.171875 2.609375 -4.203125 C 2.316406 -4.234375 1.914062 -4.1875 1.40625 -4.0625 C 0.5625 -3.863281 -0.125 -3.835938 -0.65625 -3.984375 C -1.1875 -4.128906 -1.582031 -4.472656 -1.84375 -5.015625 C -2.144531 -5.617188 -2.160156 -6.203125 -1.890625 -6.765625 C -1.628906 -7.328125 -1.113281 -7.796875 -0.34375 -8.171875 C 0.164062 -8.421875 0.65625 -8.546875 1.125 -8.546875 C 1.601562 -8.554688 2.023438 -8.445312 2.390625 -8.21875 C 2.753906 -8 3.046875 -7.664062 3.265625 -7.21875 L 1.84375 -6.53125 C 1.695312 -6.832031 1.484375 -7.015625 1.203125 -7.078125 C 0.921875 -7.148438 0.609375 -7.101562 0.265625 -6.9375 C -0.0546875 -6.78125 -0.273438 -6.597656 -0.390625 -6.390625 C -0.503906 -6.179688 -0.507812 -5.960938 -0.40625 -5.734375 C -0.3125 -5.546875 -0.128906 -5.429688 0.140625 -5.390625 C 0.410156 -5.347656 0.820312 -5.390625 1.375 -5.515625 C 2.289062 -5.722656 3.015625 -5.75 3.546875 -5.59375 C 4.078125 -5.445312 4.46875 -5.113281 4.71875 -4.59375 C 5.019531 -3.96875 5.03125 -3.367188 4.75 -2.796875 C 4.46875 -2.234375 3.9375 -1.757812 3.15625 -1.375 Z M 3.15625 -1.375 "/></g></g></g><g fill="#ffffff" fill-opacity="1"><g transform="translate(170.325282, 168.915442)"><g><path d="M 0.78125 -0.390625 L -2.4375 -6.984375 L -1.15625 -7.59375 L 2.859375 -5.328125 L 3.515625 -9.875 L 4.78125 -10.5 L 8 -3.90625 L 6.515625 -3.171875 L 4.578125 -7.125 L 4.125 -4.015625 L 3.078125 -3.515625 L 0.34375 -5.078125 L 2.28125 -1.109375 Z M 0.78125 -0.390625 "/></g></g></g><g fill="#ffffff" fill-opacity="1"><g transform="translate(179.123358, 164.624333)"><g><path d="M 3.984375 -1.78125 C 3.296875 -1.445312 2.617188 -1.296875 1.953125 -1.328125 C 1.285156 -1.367188 0.675781 -1.570312 0.125 -1.9375 C -0.425781 -2.3125 -0.867188 -2.832031 -1.203125 -3.5 C -1.535156 -4.175781 -1.675781 -4.84375 -1.625 -5.5 C -1.570312 -6.164062 -1.351562 -6.769531 -0.96875 -7.3125 C -0.582031 -7.863281 -0.046875 -8.304688 0.640625 -8.640625 C 1.328125 -8.984375 2.003906 -9.132812 2.671875 -9.09375 C 3.347656 -9.0625 3.957031 -8.859375 4.5 -8.484375 C 5.050781 -8.117188 5.492188 -7.597656 5.828125 -6.921875 C 6.160156 -6.253906 6.300781 -5.585938 6.25 -4.921875 C 6.207031 -4.265625 5.988281 -3.660156 5.59375 -3.109375 C 5.207031 -2.566406 4.671875 -2.125 3.984375 -1.78125 Z M 0.328125 -4.234375 C 0.515625 -3.835938 0.765625 -3.53125 1.078125 -3.3125 C 1.398438 -3.09375 1.753906 -2.972656 2.140625 -2.953125 C 2.523438 -2.929688 2.910156 -3.015625 3.296875 -3.203125 C 3.691406 -3.398438 3.992188 -3.65625 4.203125 -3.96875 C 4.421875 -4.28125 4.535156 -4.628906 4.546875 -5.015625 C 4.566406 -5.398438 4.484375 -5.789062 4.296875 -6.1875 C 4.109375 -6.582031 3.851562 -6.890625 3.53125 -7.109375 C 3.21875 -7.328125 2.867188 -7.445312 2.484375 -7.46875 C 2.109375 -7.5 1.722656 -7.414062 1.328125 -7.21875 C 0.941406 -7.03125 0.640625 -6.773438 0.421875 -6.453125 C 0.203125 -6.140625 0.0820312 -5.789062 0.0625 -5.40625 C 0.0507812 -5.019531 0.140625 -4.628906 0.328125 -4.234375 Z M 0.328125 -4.234375 "/></g></g></g><g fill="#ffffff" fill-opacity="1"><g transform="translate(186.970043, 160.797248)"><g><path d="M 0.78125 -0.390625 L -2.4375 -6.984375 L -0.921875 -7.703125 L 0.3125 -5.171875 L 0.859375 -5.453125 C 1.234375 -5.640625 1.476562 -5.832031 1.59375 -6.03125 C 1.71875 -6.238281 1.753906 -6.523438 1.703125 -6.890625 L 1.5 -8.890625 L 3.125 -9.6875 L 3.34375 -6.890625 C 3.375 -6.648438 3.378906 -6.414062 3.359375 -6.1875 C 3.335938 -5.96875 3.289062 -5.765625 3.21875 -5.578125 L 6.578125 -3.203125 L 4.828125 -2.359375 L 2.109375 -4.359375 C 2.066406 -4.316406 2.015625 -4.28125 1.953125 -4.25 C 1.898438 -4.226562 1.84375 -4.203125 1.78125 -4.171875 L 1 -3.78125 L 2.296875 -1.109375 Z M 0.78125 -0.390625 "/></g></g></g><g fill="#ffffff" fill-opacity="1"><g transform="translate(193.818224, 157.457167)"><g><path d="M 0.78125 -0.390625 L -2.4375 -6.984375 L 1.90625 -9.09375 L 2.515625 -7.84375 L -0.328125 -6.453125 L 0.34375 -5.0625 L 2.9375 -6.328125 L 3.546875 -5.078125 L 0.953125 -3.8125 L 1.65625 -2.390625 L 4.59375 -3.828125 L 5.21875 -2.546875 Z M 0.78125 -0.390625 "/></g></g></g><g fill="#ffffff" fill-opacity="1"><g transform="translate(199.526614, 154.672999)"><g><path d="M 3.15625 -1.375 C 2.601562 -1.113281 2.082031 -0.972656 1.59375 -0.953125 C 1.101562 -0.941406 0.671875 -1.050781 0.296875 -1.28125 C -0.078125 -1.507812 -0.378906 -1.851562 -0.609375 -2.3125 L 0.84375 -3.03125 C 1 -2.707031 1.226562 -2.507812 1.53125 -2.4375 C 1.84375 -2.375 2.175781 -2.429688 2.53125 -2.609375 C 2.84375 -2.765625 3.0625 -2.945312 3.1875 -3.15625 C 3.3125 -3.363281 3.320312 -3.578125 3.21875 -3.796875 C 3.101562 -4.035156 2.898438 -4.171875 2.609375 -4.203125 C 2.316406 -4.234375 1.914062 -4.1875 1.40625 -4.0625 C 0.5625 -3.863281 -0.125 -3.835938 -0.65625 -3.984375 C -1.1875 -4.128906 -1.582031 -4.472656 -1.84375 -5.015625 C -2.144531 -5.617188 -2.160156 -6.203125 -1.890625 -6.765625 C -1.628906 -7.328125 -1.113281 -7.796875 -0.34375 -8.171875 C 0.164062 -8.421875 0.65625 -8.546875 1.125 -8.546875 C 1.601562 -8.554688 2.023438 -8.445312 2.390625 -8.21875 C 2.753906 -8 3.046875 -7.664062 3.265625 -7.21875 L 1.84375 -6.53125 C 1.695312 -6.832031 1.484375 -7.015625 1.203125 -7.078125 C 0.921875 -7.148438 0.609375 -7.101562 0.265625 -6.9375 C -0.0546875 -6.78125 -0.273438 -6.597656 -0.390625 -6.390625 C -0.503906 -6.179688 -0.507812 -5.960938 -0.40625 -5.734375 C -0.3125 -5.546875 -0.128906 -5.429688 0.140625 -5.390625 C 0.410156 -5.347656 0.820312 -5.390625 1.375 -5.515625 C 2.289062 -5.722656 3.015625 -5.75 3.546875 -5.59375 C 4.078125 -5.445312 4.46875 -5.113281 4.71875 -4.59375 C 5.019531 -3.96875 5.03125 -3.367188 4.75 -2.796875 C 4.46875 -2.234375 3.9375 -1.757812 3.15625 -1.375 Z M 3.15625 -1.375 "/></g></g></g><g fill="#ffffff" fill-opacity="1"><g transform="translate(45.532079, 152.983539)"><g><path d="M 3.03125 1.625 C 2.476562 1.363281 2.046875 1.039062 1.734375 0.65625 C 1.421875 0.28125 1.238281 -0.125 1.1875 -0.5625 C 1.132812 -1 1.222656 -1.445312 1.453125 -1.90625 L 2.90625 -1.1875 C 2.75 -0.863281 2.738281 -0.5625 2.875 -0.28125 C 3.019531 -0.0078125 3.269531 0.210938 3.625 0.390625 C 3.9375 0.546875 4.210938 0.609375 4.453125 0.578125 C 4.691406 0.546875 4.863281 0.421875 4.96875 0.203125 C 5.082031 -0.0351562 5.066406 -0.28125 4.921875 -0.53125 C 4.773438 -0.78125 4.488281 -1.070312 4.0625 -1.40625 C 3.382812 -1.9375 2.941406 -2.457031 2.734375 -2.96875 C 2.523438 -3.476562 2.550781 -4.003906 2.8125 -4.546875 C 3.113281 -5.148438 3.5625 -5.519531 4.15625 -5.65625 C 4.757812 -5.789062 5.445312 -5.671875 6.21875 -5.296875 C 6.726562 -5.046875 7.128906 -4.734375 7.421875 -4.359375 C 7.722656 -3.992188 7.898438 -3.597656 7.953125 -3.171875 C 8.003906 -2.753906 7.921875 -2.320312 7.703125 -1.875 L 6.28125 -2.5625 C 6.425781 -2.863281 6.441406 -3.144531 6.328125 -3.40625 C 6.210938 -3.675781 5.984375 -3.894531 5.640625 -4.0625 C 5.316406 -4.21875 5.035156 -4.28125 4.796875 -4.25 C 4.554688 -4.21875 4.382812 -4.085938 4.28125 -3.859375 C 4.1875 -3.671875 4.207031 -3.457031 4.34375 -3.21875 C 4.476562 -2.976562 4.757812 -2.671875 5.1875 -2.296875 C 5.914062 -1.710938 6.382812 -1.164062 6.59375 -0.65625 C 6.800781 -0.15625 6.78125 0.351562 6.53125 0.875 C 6.226562 1.5 5.765625 1.875 5.140625 2 C 4.515625 2.132812 3.8125 2.007812 3.03125 1.625 Z M 3.03125 1.625 "/></g></g></g><g fill="#ffffff" fill-opacity="1"><g transform="translate(51.570166, 155.928511)"><g><path d="M 0.78125 0.390625 L 4 -6.203125 L 6.59375 -4.953125 C 7.125 -4.691406 7.535156 -4.367188 7.828125 -3.984375 C 8.128906 -3.597656 8.300781 -3.171875 8.34375 -2.703125 C 8.382812 -2.242188 8.289062 -1.773438 8.0625 -1.296875 C 7.820312 -0.816406 7.503906 -0.445312 7.109375 -0.1875 C 6.710938 0.0625 6.269531 0.1875 5.78125 0.1875 C 5.300781 0.1875 4.796875 0.0546875 4.265625 -0.203125 L 3.1875 -0.734375 L 2.296875 1.109375 Z M 3.8125 -2.015625 L 4.78125 -1.546875 C 5.164062 -1.347656 5.507812 -1.289062 5.8125 -1.375 C 6.113281 -1.457031 6.347656 -1.675781 6.515625 -2.03125 C 6.679688 -2.375 6.703125 -2.6875 6.578125 -2.96875 C 6.460938 -3.257812 6.210938 -3.503906 5.828125 -3.703125 L 4.859375 -4.171875 Z M 3.8125 -2.015625 "/></g></g></g><g fill="#ffffff" fill-opacity="1"><g transform="translate(57.83432, 158.983743)"><g><path d="M 0.78125 0.390625 L 4 -6.203125 L 5.515625 -5.484375 L 2.296875 1.109375 Z M 0.78125 0.390625 "/></g></g></g><g fill="#ffffff" fill-opacity="1"><g transform="translate(60.914592, 160.486092)"><g><path d="M 0.78125 0.390625 L 4 -6.203125 L 6.828125 -4.828125 C 7.335938 -4.585938 7.734375 -4.285156 8.015625 -3.921875 C 8.296875 -3.554688 8.453125 -3.15625 8.484375 -2.71875 C 8.515625 -2.28125 8.414062 -1.828125 8.1875 -1.359375 C 7.945312 -0.867188 7.632812 -0.503906 7.25 -0.265625 C 6.863281 -0.0351562 6.425781 0.0703125 5.9375 0.0625 L 6.1875 3.015625 L 4.453125 2.171875 L 4.28125 -0.4375 L 3.296875 -0.9375 L 2.296875 1.109375 Z M 3.890625 -2.203125 L 5.015625 -1.640625 C 5.378906 -1.460938 5.707031 -1.410156 6 -1.484375 C 6.289062 -1.566406 6.515625 -1.769531 6.671875 -2.09375 C 6.828125 -2.414062 6.84375 -2.707031 6.71875 -2.96875 C 6.601562 -3.238281 6.363281 -3.460938 6 -3.640625 L 4.875 -4.203125 Z M 3.890625 -2.203125 "/></g></g></g><g fill="#ffffff" fill-opacity="1"><g transform="translate(67.54612, 163.720504)"><g><path d="M 0.78125 0.390625 L 4 -6.203125 L 5.515625 -5.484375 L 2.296875 1.109375 Z M 0.78125 0.390625 "/></g></g></g><g fill="#ffffff" fill-opacity="1"><g transform="translate(70.626392, 165.222854)"><g><path d="M 2.375 1.15625 L 4.90625 -4.046875 L 2.8125 -5.0625 L 3.5 -6.453125 L 9.1875 -3.6875 L 8.5 -2.296875 L 6.40625 -3.3125 L 3.875 1.890625 Z M 2.375 1.15625 "/></g></g></g><g clip-path="url(#2ec3834e0f)"><g clip-path="url(#81384ac344)"><g clip-path="url(#64b8c010b6)"><g transform="matrix(1, 0, 0, 1, 33, 141)"><g clip-path="url(#54e515e0aa)"><g clip-path="url(#3fdfc07e65)"><g clip-path="url(#9a40f51a34)"><g clip-path="url(#ce0c98bb0b)"><path fill="#fdb144" d="M 3.6875 -1.765625 L 11.433594 2.613281 L 7.265625 9.980469 L -0.480469 5.601562 Z M 3.6875 -1.765625 " fill-opacity="1" fill-rule="nonzero"/></g></g></g></g></g></g></g></g><g clip-path="url(#6a29f25500)"><g clip-path="url(#20b936394a)"><g clip-path="url(#4f4c272b67)"><g transform="matrix(1, 0, 0, 1, 82, 166)"><g clip-path="url(#9f74d39640)"><g clip-path="url(#835016924b)"><g clip-path="url(#bff315f83b)"><g clip-path="url(#3b3413924b)"><path fill="#fdb144" d="M 3.179688 -2.113281 L 10.921875 2.269531 L 6.753906 9.636719 L -0.988281 5.257812 Z M 3.179688 -2.113281 " fill-opacity="1" fill-rule="nonzero"/></g></g></g></g></g></g></g></g><g clip-path="url(#0a4900b9a3)"><g clip-path="url(#706d8f2fe4)"><g clip-path="url(#880d01672f)"><g transform="matrix(1, 0, 0, 1, 149, 169)"><g clip-path="url(#c2919f6847)"><g clip-path="url(#bb3dfa30ca)"><g clip-path="url(#a38a0a0355)"><g clip-path="url(#1a423797e7)"><path fill="#fdb144" d="M -1.21875 2.773438 L 6.640625 -1.394531 L 10.609375 6.082031 L 2.75 10.253906 Z M -1.21875 2.773438 " fill-opacity="1" fill-rule="nonzero"/></g></g></g></g></g></g></g></g><g clip-path="url(#4f32ff1d73)"><g clip-path="url(#d86ed56012)"><g clip-path="url(#19185c290d)"><g transform="matrix(1, 0, 0, 1, 208, 141)"><g clip-path="url(#e0731655e3)"><g clip-path="url(#0c81264f9d)"><g clip-path="url(#ee4c3ccaa9)"><g clip-path="url(#e7c6f24b95)"><path fill="#fdb144" d="M -1.414062 2.394531 L 6.445312 -1.773438 L 10.414062 5.703125 L 2.554688 9.875 Z M -1.414062 2.394531 " fill-opacity="1" fill-rule="nonzero"/></g></g></g></g></g></g></g></g><g clip-path="url(#a63eb6dc31)"><g clip-path="url(#3b5ae7dda0)"><g clip-path="url(#5f1cf853c6)"><g transform="matrix(1, 0, 0, 1, 80, 21)"><g clip-path="url(#2128876602)"><g clip-path="url(#8caee2c710)"><g clip-path="url(#07fb4c61d2)"><g clip-path="url(#8e1f1318e4)"><path fill="#eaa94b" d="M 5.648438 -1.382812 L 11.136719 5.617188 L 4.472656 10.84375 L -1.011719 3.839844 Z M 5.648438 -1.382812 " fill-opacity="1" fill-rule="nonzero"/></g></g></g></g></g></g></g></g><g clip-path="url(#a1bf9d6d1e)"><g clip-path="url(#3f54f97e73)"><g clip-path="url(#a026638802)"><g transform="matrix(1, 0, 0, 1, 36, 43)"><g clip-path="url(#f683a8c16c)"><g clip-path="url(#6f617212e3)"><g clip-path="url(#736b5174d9)"><g clip-path="url(#bc476d5730)"><path fill="#fdb144" d="M 5.683594 -1.699219 L 11.179688 5.296875 L 4.519531 10.527344 L -0.976562 3.53125 Z M 5.683594 -1.699219 " fill-opacity="1" fill-rule="nonzero"/></g></g></g></g></g></g></g></g><g clip-path="url(#b63a39b4dc)"><g clip-path="url(#e9a480a73e)"><g clip-path="url(#acdc18b37e)"><g transform="matrix(1, 0, 0, 1, 199, 42)"><g clip-path="url(#a0d044ba8c)"><g clip-path="url(#211486addc)"><g clip-path="url(#9375dbc8a5)"><g clip-path="url(#eb4d5cb3e9)"><path fill="#eaa94b" d="M -1.332031 4.03125 L 4.957031 -2.257812 L 10.945312 3.730469 L 4.652344 10.019531 Z M -1.332031 4.03125 " fill-opacity="1" fill-rule="nonzero"/></g></g></g></g></g></g></g></g><g clip-path="url(#9c006892b0)"><g clip-path="url(#39c4e38dc9)"><g clip-path="url(#7d99a133a1)"><g transform="matrix(1, 0, 0, 1, 160, 22)"><g clip-path="url(#e8bfd973f2)"><g clip-path="url(#7d017aea8b)"><g clip-path="url(#99b6abfb98)"><g clip-path="url(#1bb81d0b6e)"><path fill="#eaa94b" d="M -2.117188 4.589844 L 4.175781 -1.699219 L 10.160156 4.285156 L 3.871094 10.578125 Z M -2.117188 4.589844 " fill-opacity="1" fill-rule="nonzero"/></g></g></g></g></g></g></g></g><path stroke-linecap="butt" transform="matrix(0.747768, 0.000000000000000136, -0.000000000000000136, 0.747768, 7.764811, 113.808106)" fill="none" stroke-linejoin="miter" d="M 0.00108818 0.998414 L 313.198862 0.998414 " stroke="#ffffff" stroke-width="2" stroke-opacity="1" stroke-miterlimit="4"/><path stroke-linecap="butt" transform="matrix(0.747768, 0.000000000000000068, -0.000000000000000068, 0.747768, 7.764811, 78.940771)" fill="none" stroke-linejoin="miter" d="M 0.00108818 0.998611 L 313.198862 0.998611 " stroke="#ffffff" stroke-width="2" stroke-opacity="1" stroke-miterlimit="4"/><path stroke-linecap="butt" transform="matrix(0.747768, 0, 0, 0.747768, 7.826452, 116.799177)" fill="none" stroke-linejoin="miter" d="M 0.00223763 1.997668 L 313.226131 1.997668 " stroke="#fdb144" stroke-width="4" stroke-opacity="1" stroke-miterlimit="4"/><path stroke-linecap="butt" transform="matrix(0, 0.747768, -0.747768, 0, 32.518374, 122.037773)" fill="none" stroke-linejoin="miter" d="M 0.00172482 1.999199 L 9.728591 1.999199 " stroke="#ffffff" stroke-width="4" stroke-opacity="1" stroke-miterlimit="4"/><path stroke-linecap="butt" transform="matrix(0, 0.747768, -0.747768, 0, 41.491131, 122.068684)" fill="none" stroke-linejoin="miter" d="M 0.00217827 1.999334 L 9.697701 1.999334 " stroke="#ffffff" stroke-width="4" stroke-opacity="1" stroke-miterlimit="4"/><path stroke-linecap="butt" transform="matrix(0.0000000013051, 0.747768, -0.747768, 0.0000000013051, 50.553577, 122.068684)" fill="none" stroke-linejoin="miter" d="M 0.00217827 1.999262 L 9.697701 1.999262 " stroke="#ffffff" stroke-width="4" stroke-opacity="1" stroke-miterlimit="4"/><path stroke-linecap="butt" transform="matrix(0, 0.747768, -0.747768, 0, 59.527251, 122.237069)" fill="none" stroke-linejoin="miter" d="M 0.00162115 2.000622 L 9.728487 2.000622 " stroke="#ffffff" stroke-width="4" stroke-opacity="1" stroke-miterlimit="4"/><path stroke-linecap="butt" transform="matrix(0, 0.747768, -0.747768, 0, 68.50001, 122.26798)" fill="none" stroke-linejoin="miter" d="M 0.00207459 2.00076 L 9.697597 2.00076 " stroke="#ffffff" stroke-width="4" stroke-opacity="1" stroke-miterlimit="4"/><path stroke-linecap="butt" transform="matrix(0.0000000013051, 0.747768, -0.747768, 0.0000000013051, 77.562451, 122.26798)" fill="none" stroke-linejoin="miter" d="M 0.00207459 2.000681 L 9.697597 2.000681 " stroke="#ffffff" stroke-width="4" stroke-opacity="1" stroke-miterlimit="4"/><path stroke-linecap="butt" transform="matrix(0, 0.747768, -0.747768, 0, 171.99491, 122.037773)" fill="none" stroke-linejoin="miter" d="M 0.00172482 1.999164 L 9.728591 1.999164 " stroke="#ffffff" stroke-width="4" stroke-opacity="1" stroke-miterlimit="4"/><path stroke-linecap="butt" transform="matrix(0, 0.747768, -0.747768, 0, 180.967672, 122.068684)" fill="none" stroke-linejoin="miter" d="M 0.00217827 1.999305 L 9.697701 1.999305 " stroke="#ffffff" stroke-width="4" stroke-opacity="1" stroke-miterlimit="4"/><path stroke-linecap="butt" transform="matrix(0.0000000013051, 0.747768, -0.747768, 0.0000000013051, 190.03012, 122.068684)" fill="none" stroke-linejoin="miter" d="M 0.00217827 1.999236 L 9.697701 1.999236 " stroke="#ffffff" stroke-width="4" stroke-opacity="1" stroke-miterlimit="4"/><path stroke-linecap="butt" transform="matrix(0, 0.747768, -0.747768, 0, 199.003772, 122.237069)" fill="none" stroke-linejoin="miter" d="M 0.00162115 2.000567 L 9.728487 2.000567 " stroke="#ffffff" stroke-width="4" stroke-opacity="1" stroke-miterlimit="4"/><path stroke-linecap="butt" transform="matrix(0, 0.747768, -0.747768, 0, 207.976534, 122.26798)" fill="none" stroke-linejoin="miter" d="M 0.00207459 2.000708 L 9.697597 2.000708 " stroke="#ffffff" stroke-width="4" stroke-opacity="1" stroke-miterlimit="4"/><path stroke-linecap="butt" transform="matrix(0.0000000013051, 0.747768, -0.747768, 0.0000000013051, 217.038999, 122.26798)" fill="none" stroke-linejoin="miter" d="M 0.00207459 2.000661 L 9.697597 2.000661 " stroke="#ffffff" stroke-width="4" stroke-opacity="1" stroke-miterlimit="4"/></svg>